<?xml version="1.0" encoding="UTF-8"?>
<svg width="91px" height="51px" viewBox="0 0 91 51" version="1.1" xmlns="http://www.w3.org/2000/svg" xmlns:xlink="http://www.w3.org/1999/xlink">
    <!-- Generator: sketchtool 61 (101010) - https://sketch.com -->
    <title>9043DE25-4097-44C8-AA66-6E42D3B3132D</title>
    <desc>Created with sketchtool.</desc>
    <defs>
        <polygon id="path-1" points="0.011142 0.03861 5.960682 0.03861 5.960682 12.954303 0.011142 12.954303"></polygon>
        <polygon id="path-3" points="0 50.72139 90.65304 50.72139 90.65304 0.09 0 0.09"></polygon>
    </defs>
    <g id="02.Home" stroke="none" stroke-width="1" fill="none" fill-rule="evenodd">
        <g id="GOfit-Desktop-Home" transform="translate(-151.000000, -58.000000)">
            <g id="Header" transform="translate(1.000000, 0.000000)">
                <g id="Menu">
                    <g transform="translate(150.000000, 11.000000)">
                        <g id="Group-26" transform="translate(0.000000, 47.000000)">
                            <path d="M39.432114,33.701679 L34.246764,33.701679 L33.848064,31.742919 C32.929434,32.613309 31.865814,33.278499 30.657114,33.736959 C29.448414,34.196049 28.203714,34.426449 26.922654,34.426449 C23.634684,34.426449 20.854404,33.181749 18.582624,30.691539 C16.310664,28.201869 15.175044,25.301349 15.175044,21.989889 C15.175044,18.798489 16.298334,15.861609 18.546714,13.177179 C20.915874,10.346769 23.671674,8.932689 26.813574,8.932689 C30.052674,8.932689 32.675004,9.621459 34.682364,11.000259 C36.808884,12.475359 38.283444,14.736699 39.105504,17.783829 L31.527414,17.783829 C31.020264,15.897339 29.725974,14.953779 27.647604,14.953779 C26.173224,14.953779 24.940674,15.788619 23.949414,17.457219 C23.078664,18.906939 22.643694,20.418489 22.643694,21.989889 C22.643694,23.439339 23.115114,24.853869 24.058134,26.231769 C25.097184,27.754389 26.317674,28.515699 27.720144,28.515699 C28.735884,28.515699 29.654064,28.274589 30.475944,27.790569 C31.297554,27.307269 31.829454,26.606439 32.071464,25.688529 L28.590534,25.688529 L28.590534,20.394459 L39.432114,20.394459 L39.432114,33.701679 Z" id="Fill-1" fill="#E98301"></path>
                            <path d="M57.186468,19.434528 C57.786138,20.198898 58.224978,20.999178 58.504608,21.837258 C59.066298,23.507838 58.813488,24.921738 57.746898,26.077338 C56.713428,27.198198 55.351998,27.586728 53.662968,27.242748 C52.246548,26.953488 50.940288,26.265618 49.743918,25.176618 C48.511728,24.055758 47.647278,22.836528 47.152278,21.515148 C46.539558,19.863198 46.743318,18.485568 47.760858,17.382798 C48.844008,16.208118 50.228028,15.760368 51.915168,16.037748 C52.808868,16.186158 53.667108,16.510338 54.490698,17.010108 C54.633348,17.089938 54.839538,17.133408 55.092708,17.130078 C56.809548,16.519338 58.169088,15.370038 59.529888,14.220918 C58.496328,15.666768 57.462228,17.113158 56.989728,18.867258 C57.020418,19.108098 57.089448,19.302138 57.186468,19.434528 M65.581218,21.099348 C65.470968,19.780308 65.160378,18.524268 64.650888,17.330148 C64.587438,17.180748 64.517418,17.027478 64.402668,16.826328 C60.672798,15.261228 57.746898,12.897198 55.897038,9.389178 C55.813338,9.476928 55.284678,9.220338 54.977508,9.157068 C54.055368,8.967708 53.108298,8.895078 52.135668,8.937918 C48.892158,9.080928 46.051128,10.476198 43.610058,13.123188 C41.089608,15.856668 39.916908,18.857178 40.092138,22.125888 C40.267728,25.394058 41.730858,28.278558 44.479278,30.778308 C47.226888,33.278508 50.248998,34.471908 53.543808,34.359498 C56.839068,34.247358 59.731038,32.842098 62.219808,30.145158 C64.739808,27.412308 65.860038,24.397218 65.581218,21.099348" id="Fill-3" fill="#E98301"></path>
                            <path d="M65.959182,1.726893 C65.959182,1.024803 66.527892,0.455373 67.230072,0.455373 C67.930992,0.455373 68.500512,1.024803 68.500512,1.726893 C68.500512,2.429703 67.930992,2.998953 67.230072,2.998953 C66.527892,2.998953 65.959182,2.429703 65.959182,1.726893" id="Fill-5" fill="#1D1E1C"></path>
                            <g id="Group-9" transform="translate(59.040000, 0.051390)">
                                <mask id="mask-2" fill="white">
                                    <use xlink:href="#path-1"></use>
                                </mask>
                                <g id="Clip-8"></g>
                                <path d="M3.202812,4.465413 L5.668002,4.465413 L5.668002,6.346683 L3.202812,6.346683 L3.202812,12.954303 L1.392012,12.954303 L1.392012,6.346683 L0.011142,6.346683 L0.011142,4.465413 L1.392012,4.465413 L1.392012,2.793033 C1.392012,2.115783 1.609452,1.199853 2.044962,0.763983 C2.528352,0.280503 3.181122,0.039123 4.003092,0.038583 C4.630932,0.038583 5.283612,0.159813 5.960682,0.401193 L5.960682,2.212533 C5.283612,1.874133 5.087862,1.704933 4.652892,1.704663 C4.121082,1.704663 3.734442,1.826073 3.492342,2.067903 C3.299022,2.260773 3.202812,2.503053 3.202812,2.793033 L3.202812,4.465413 Z" id="Fill-7" fill="#1D1E1C" mask="url(#mask-2)"></path>
                            </g>
                            <mask id="mask-4" fill="white">
                                <use xlink:href="#path-3"></use>
                            </mask>
                            <g id="Clip-11"></g>
                            <polygon id="Fill-10" fill="#1D1E1C" mask="url(#mask-4)" points="66.30561 13.00572 68.11578 13.00572 68.11578 4.87674 66.30561 4.87674"></polygon>
                            <path d="M70.998039,2.051784 L72.808119,2.051784 L72.808119,4.522374 L75.273129,4.522374 L75.273129,6.404094 L72.808119,6.404094 L72.808119,10.400904 C72.808119,10.691334 73.025469,11.084724 73.363239,11.332314 C73.677609,11.523834 74.071179,11.579544 74.554929,11.546064 C75.014469,11.514294 75.432069,11.354994 75.903849,11.129724 L75.925719,12.720654 C75.393909,13.011264 74.813679,13.156704 74.185389,13.156704 C73.218249,13.156704 72.250029,12.964284 71.722449,12.502944 C71.204229,12.041604 70.998039,11.486934 70.998039,10.906344 L70.998039,6.404094 L69.617619,6.404094 L69.617619,4.522374 L70.998039,4.522374 L70.998039,2.051784 Z" id="Fill-12" fill="#1D1E1C" mask="url(#mask-4)"></path>
                            <path d="M0.111258,44.163207 C0.009738,43.858467 -0.016992,43.724907 0.009738,43.553817 C0.063198,43.169067 0.464058,43.003287 0.720648,43.003287 C0.891648,43.003287 1.046628,43.062147 1.158858,43.174377 C1.287108,43.302627 1.340568,43.414947 1.442178,43.719507 L2.858508,48.064977 L4.274928,43.719507 C4.376448,43.414947 4.429908,43.302627 4.558158,43.174377 C4.670388,43.062147 4.825458,43.003287 4.996458,43.003287 C5.253048,43.003287 5.653818,43.169067 5.707368,43.553817 C5.734098,43.724907 5.707368,43.858467 5.605758,44.163207 L3.660228,49.967667 C3.558708,50.267007 3.473118,50.411367 3.360888,50.518197 C3.216618,50.646447 3.061638,50.699907 2.858508,50.699907 C2.650068,50.699907 2.495088,50.646447 2.350728,50.518197 C2.238498,50.411367 2.152998,50.267007 2.051478,49.967667 L0.111258,44.163207 Z" id="Fill-13" fill="#1D1E1C" mask="url(#mask-4)"></path>
                            <path d="M8.29458,49.695138 C8.29458,50.042538 8.28387,50.165478 8.19306,50.347188 C8.08083,50.555718 7.84026,50.699898 7.54632,50.699898 C7.25229,50.699898 7.01181,50.555718 6.89958,50.347188 C6.80868,50.165478 6.79806,50.042538 6.79806,49.695138 L6.79806,44.008218 C6.79806,43.660728 6.80868,43.537878 6.89958,43.356078 C7.01181,43.147638 7.25229,43.003278 7.54632,43.003278 C7.84026,43.003278 8.08083,43.147638 8.19306,43.356078 C8.28387,43.537878 8.29458,43.660728 8.29458,44.008218 L8.29458,49.695138 Z" id="Fill-14" fill="#1D1E1C" mask="url(#mask-4)"></path>
                            <path d="M9.486639,44.163207 C9.385119,43.858467 9.358389,43.724907 9.385119,43.553817 C9.438579,43.169067 9.839439,43.003287 10.096029,43.003287 C10.267029,43.003287 10.422009,43.062147 10.534239,43.174377 C10.662489,43.302627 10.715949,43.414947 10.817559,43.719507 L12.233889,48.064977 L13.650309,43.719507 C13.751829,43.414947 13.805289,43.302627 13.933539,43.174377 C14.045769,43.062147 14.200839,43.003287 14.371839,43.003287 C14.628429,43.003287 15.029199,43.169067 15.082749,43.553817 C15.109479,43.724907 15.082749,43.858467 14.981139,44.163207 L13.035609,49.967667 C12.934089,50.267007 12.848499,50.411367 12.736269,50.518197 C12.591999,50.646447 12.437019,50.699907 12.233889,50.699907 C12.025449,50.699907 11.870469,50.646447 11.726109,50.518197 C11.613879,50.411367 11.528379,50.267007 11.426859,49.967667 L9.486639,44.163207 Z" id="Fill-15" fill="#1D1E1C" mask="url(#mask-4)"></path>
                            <path d="M16.381836,50.448708 C16.173396,50.240358 16.173396,49.967658 16.173396,49.748598 L16.173396,43.954758 C16.173396,43.735608 16.173396,43.462998 16.381836,43.254558 C16.590276,43.046118 16.862886,43.046118 17.082036,43.046118 L20.342376,43.046118 C20.657736,43.046118 20.780676,43.056828 20.924946,43.131618 C21.112056,43.227918 21.240306,43.446978 21.240306,43.708878 C21.240306,43.970778 21.112056,44.189928 20.924946,44.286138 C20.780676,44.360928 20.657736,44.371638 20.342376,44.371638 L17.670006,44.371638 L17.670006,46.156788 L19.829286,46.156788 C20.144646,46.156788 20.267586,46.167588 20.411856,46.242378 C20.598966,46.338588 20.727216,46.557738 20.727216,46.819638 C20.727216,47.081448 20.598966,47.300598 20.411856,47.396808 C20.267586,47.471688 20.144646,47.482308 19.829286,47.482308 L17.670006,47.482308 L17.670006,49.331628 L20.342376,49.331628 C20.657736,49.331628 20.780676,49.342338 20.924946,49.417218 C21.112056,49.513338 21.240306,49.732488 21.240306,49.994388 C21.240306,50.256288 21.112056,50.475438 20.924946,50.571648 C20.780676,50.646438 20.657736,50.657148 20.342376,50.657148 L17.082036,50.657148 C16.862886,50.657148 16.590276,50.657148 16.381836,50.448708" id="Fill-16" fill="#1D1E1C" mask="url(#mask-4)"></path>
                            <path d="M27.841716,48.690279 L26.601696,46.247679 L26.601696,49.695129 C26.601696,50.042529 26.590986,50.165469 26.500086,50.347179 C26.387856,50.555709 26.147376,50.699889 25.853436,50.699889 C25.559406,50.699889 25.318926,50.555709 25.206696,50.347179 C25.115796,50.165469 25.105086,50.042529 25.105086,49.695129 L25.105086,43.928019 C25.105086,43.602039 25.147836,43.388199 25.329546,43.206399 C25.463196,43.072839 25.628886,43.003359 25.832016,43.003359 C26.008416,43.003359 26.141976,43.035399 26.275626,43.126299 C26.425296,43.222509 26.558946,43.404219 26.655066,43.585929 L28.557936,47.209779 L30.460716,43.585929 C30.556926,43.404219 30.690486,43.222509 30.840156,43.126299 C30.973806,43.035399 31.107366,43.003359 31.283766,43.003359 C31.486896,43.003359 31.652586,43.072839 31.786146,43.206399 C31.967946,43.388199 32.010696,43.602039 32.010696,43.928019 L32.010696,49.695129 C32.010696,50.042529 31.999986,50.165469 31.909086,50.347179 C31.796856,50.555709 31.556286,50.699889 31.262436,50.699889 C30.968406,50.699889 30.727926,50.555709 30.615606,50.347179 C30.524796,50.165469 30.514086,50.042529 30.514086,49.695129 L30.514086,46.247679 L29.274156,48.690279 C29.087046,49.059099 28.910646,49.214079 28.557936,49.214079 C28.205136,49.214079 28.028736,49.059099 27.841716,48.690279" id="Fill-17" fill="#1D1E1C" mask="url(#mask-4)"></path>
                            <path d="M35.806104,41.838156 C35.816724,41.688576 35.864784,41.597676 36.014454,41.357106 L36.468774,40.630266 C36.565074,40.475196 36.650574,40.341636 36.762804,40.261446 C36.853704,40.197366 36.949824,40.165236 37.067454,40.165236 C37.179684,40.165236 37.291914,40.197366 37.393524,40.261446 C37.601964,40.395096 37.698084,40.582116 37.682154,40.774626 C37.671444,40.924206 37.623294,41.015016 37.473624,41.255586 L37.019304,41.982516 C36.923094,42.137496 36.837594,42.271146 36.725364,42.351246 C36.634464,42.415416 36.538344,42.447546 36.420714,42.447546 C36.308484,42.447546 36.196254,42.415416 36.094644,42.351246 C35.886294,42.217686 35.789994,42.030666 35.806104,41.838156 L35.806104,41.838156 Z M35.271594,48.059586 L37.313334,48.059586 L36.292374,45.296316 L35.271594,48.059586 Z M39.328344,49.513356 C39.472614,49.898286 39.558114,50.181516 39.290904,50.470146 C39.151944,50.619726 38.954214,50.699916 38.756394,50.699916 C38.590704,50.699916 38.457144,50.651856 38.344824,50.560956 C38.216574,50.454036 38.157804,50.341806 38.029554,49.999806 L37.778274,49.310226 L34.806654,49.310226 L34.555374,49.999806 C34.427124,50.341806 34.368264,50.454036 34.240014,50.560956 C34.127784,50.651856 33.994134,50.699916 33.828444,50.699916 C33.630714,50.699916 33.432984,50.619726 33.294024,50.470146 C33.026724,50.181516 33.112224,49.898286 33.256584,49.513356 L35.453304,43.687476 C35.560224,43.409556 35.640324,43.286706 35.757954,43.185096 C35.902224,43.056846 36.062694,43.003296 36.292374,43.003296 C36.522234,43.003296 36.682614,43.056846 36.826974,43.185096 C36.944514,43.286706 37.024704,43.409556 37.131624,43.687476 L39.328344,49.513356 Z" id="Fill-18" fill="#1D1E1C" mask="url(#mask-4)"></path>
                            <path d="M42.236271,47.418237 C41.584221,47.322027 41.113791,47.124207 40.761081,46.782207 C40.392351,46.424007 40.215951,45.927027 40.215951,45.290907 C40.215951,43.938747 41.220801,42.981957 42.866991,42.981957 C43.577811,42.981957 44.069571,43.110297 44.587971,43.350777 C44.946081,43.516377 45.197271,43.778367 45.197271,44.093727 C45.197271,44.243397 45.138501,44.414397 45.026271,44.553357 C44.919351,44.676297 44.775081,44.756487 44.582661,44.756487 C44.406261,44.756487 44.203131,44.676297 44.026821,44.585397 C43.620561,44.371557 43.267851,44.286147 42.824151,44.286147 C42.038541,44.286147 41.653611,44.719047 41.653611,45.205407 C41.653611,45.440577 41.712471,45.638397 41.872851,45.788067 C42.033141,45.932337 42.225561,46.028547 42.578361,46.081917 L43.470981,46.210257 C44.165691,46.311777 44.609391,46.498887 44.930061,46.803537 C45.336231,47.183067 45.518031,47.733597 45.518031,48.412377 C45.518031,49.882167 44.288721,50.721327 42.690591,50.721327 C41.862141,50.721327 41.381091,50.609097 40.798431,50.331087 C40.312071,50.101407 40.039551,49.887567 40.039551,49.459977 C40.039551,49.299597 40.114341,49.101867 40.242681,48.973527 C40.365621,48.850587 40.504581,48.807837 40.659471,48.807837 C40.830561,48.807837 40.980231,48.861297 41.263461,49.010967 C41.792661,49.288887 42.140061,49.406517 42.706611,49.406517 C43.583211,49.406517 44.058861,49.053717 44.058861,48.449727 C44.058861,48.187917 43.984071,47.963367 43.829001,47.813787 C43.695441,47.685447 43.503021,47.605257 43.144911,47.551797 L42.236271,47.418237 Z" id="Fill-19" fill="#1D1E1C" mask="url(#mask-4)"></path>
                            <path d="M50.745753,50.347197 C50.654943,50.165397 50.644233,50.042547 50.644233,49.695147 L50.644233,47.674827 L48.923163,44.243397 C48.773583,43.938747 48.725433,43.826517 48.730743,43.655427 C48.736143,43.436277 48.875103,43.211817 49.120893,43.088967 C49.238523,43.030107 49.361463,43.003287 49.468383,43.003287 C49.596633,43.003287 49.719573,43.046127 49.815783,43.115607 C49.954743,43.217127 50.018913,43.318647 50.168583,43.623387 L51.392583,46.092717 L52.616493,43.623387 C52.766163,43.318647 52.830243,43.217127 52.969203,43.115607 C53.065413,43.046127 53.188443,43.003287 53.316603,43.003287 C53.423613,43.003287 53.546463,43.030107 53.664093,43.088967 C53.909883,43.211817 54.048933,43.436277 54.054243,43.655427 C54.059553,43.826517 54.011493,43.938747 53.861823,44.243397 L52.140753,47.674827 L52.140753,49.695147 C52.140753,50.042547 52.130133,50.165397 52.039233,50.347197 C51.927003,50.555637 51.686433,50.699907 51.392583,50.699907 C51.098553,50.699907 50.858073,50.555637 50.745753,50.347197" id="Fill-20" fill="#1D1E1C" mask="url(#mask-4)"></path>
                            <path d="M60.377688,48.690279 L59.137758,46.247679 L59.137758,49.695129 C59.137758,50.042529 59.127048,50.165469 59.036148,50.347179 C58.923918,50.555709 58.683348,50.699889 58.389408,50.699889 C58.095468,50.699889 57.854988,50.555709 57.742758,50.347179 C57.651858,50.165469 57.641148,50.042529 57.641148,49.695129 L57.641148,43.928019 C57.641148,43.602039 57.683898,43.388199 57.865608,43.206399 C57.999168,43.072839 58.164948,43.003359 58.368078,43.003359 C58.544388,43.003359 58.678038,43.035399 58.811688,43.126299 C58.961358,43.222509 59.094918,43.404219 59.191128,43.585929 L61.093908,47.209779 L62.996688,43.585929 C63.092898,43.404219 63.226458,43.222509 63.376128,43.126299 C63.509778,43.035399 63.643338,43.003359 63.819738,43.003359 C64.022868,43.003359 64.188558,43.072839 64.322208,43.206399 C64.503918,43.388199 64.546668,43.602039 64.546668,43.928019 L64.546668,49.695129 C64.546668,50.042529 64.535958,50.165469 64.445058,50.347179 C64.332828,50.555709 64.092348,50.699889 63.798408,50.699889 C63.504378,50.699889 63.263898,50.555709 63.151668,50.347179 C63.060768,50.165469 63.050058,50.042529 63.050058,49.695129 L63.050058,46.247679 L61.810128,48.690279 C61.623018,49.059099 61.446708,49.214079 61.093908,49.214079 C60.741108,49.214079 60.564708,49.059099 60.377688,48.690279" id="Fill-21" fill="#1D1E1C" mask="url(#mask-4)"></path>
                            <path d="M66.519477,50.448708 C66.311037,50.240358 66.311037,49.967658 66.311037,49.748598 L66.311037,43.954758 C66.311037,43.735608 66.311037,43.462998 66.519477,43.254558 C66.727827,43.046118 67.000527,43.046118 67.219587,43.046118 L70.480017,43.046118 C70.795377,43.046118 70.918227,43.056828 71.062587,43.131618 C71.249697,43.227918 71.377857,43.446978 71.377857,43.708878 C71.377857,43.970778 71.249697,44.189928 71.062587,44.286138 C70.918227,44.360928 70.795377,44.371638 70.480017,44.371638 L67.807647,44.371638 L67.807647,46.156788 L69.966927,46.156788 C70.282287,46.156788 70.405137,46.167588 70.549407,46.242378 C70.736517,46.338588 70.864767,46.557738 70.864767,46.819638 C70.864767,47.081448 70.736517,47.300598 70.549407,47.396808 C70.405137,47.471688 70.282287,47.482308 69.966927,47.482308 L67.807647,47.482308 L67.807647,49.331628 L70.480017,49.331628 C70.795377,49.331628 70.918227,49.342338 71.062587,49.417218 C71.249697,49.513338 71.377857,49.732488 71.377857,49.994388 C71.377857,50.256288 71.249697,50.475438 71.062587,50.571648 C70.918227,50.646438 70.795377,50.657148 70.480017,50.657148 L67.219587,50.657148 C67.000527,50.657148 66.727827,50.657148 66.519477,50.448708" id="Fill-22" fill="#1D1E1C" mask="url(#mask-4)"></path>
                            <path d="M75.167658,48.091662 L75.167658,44.008182 C75.167658,43.660782 75.178368,43.537842 75.269178,43.356132 C75.381498,43.147602 75.621978,43.003332 75.915918,43.003332 C76.209948,43.003332 76.450428,43.147602 76.562658,43.356132 C76.653558,43.537842 76.664268,43.660782 76.664268,44.008182 L76.664268,48.155832 C76.664268,49.834062 75.392118,50.721372 73.970388,50.721372 C73.393128,50.721372 72.906768,50.598432 72.495288,50.299092 C72.254718,50.122692 72.158508,49.940982 72.158508,49.705812 C72.158508,49.524102 72.244098,49.336992 72.366948,49.224762 C72.489888,49.117842 72.628848,49.069782 72.773208,49.069782 C72.922878,49.069782 73.067148,49.123242 73.280898,49.230072 C73.532088,49.353102 73.703178,49.395762 73.970388,49.395762 C74.697318,49.395762 75.167658,48.968172 75.167658,48.091662" id="Fill-23" fill="#1D1E1C" mask="url(#mask-4)"></path>
                            <path d="M79.908831,44.713674 C79.625601,45.034344 79.540011,45.397854 79.540011,46.851714 C79.540011,48.305394 79.625601,48.663594 79.908831,48.984264 C80.122581,49.224744 80.459271,49.395744 80.865531,49.395744 C81.271791,49.395744 81.608481,49.224744 81.822321,48.984264 C82.105551,48.663594 82.191051,48.305394 82.191051,46.851714 C82.191051,45.397854 82.105551,45.034344 81.822321,44.713674 C81.608481,44.467884 81.271791,44.307504 80.865531,44.307504 C80.459271,44.307504 80.122581,44.467884 79.908831,44.713674 M78.823791,49.919634 C78.070131,49.165974 78.043401,48.305394 78.043401,46.851714 C78.043401,45.397854 78.070131,44.537364 78.823791,43.783704 C79.336971,43.265214 79.983621,42.981984 80.865531,42.981984 C81.747441,42.981984 82.394181,43.265214 82.907271,43.783704 C83.660841,44.537364 83.687571,45.397854 83.687571,46.851714 C83.687571,48.305394 83.660841,49.165974 82.907271,49.919634 C82.394181,50.438124 81.747441,50.721354 80.865531,50.721354 C79.983621,50.721354 79.336971,50.438124 78.823791,49.919634" id="Fill-24" fill="#1D1E1C" mask="url(#mask-4)"></path>
                            <path d="M88.097598,46.375947 C88.749648,46.375947 89.166618,45.969687 89.166618,45.376497 C89.166618,44.777817 88.749648,44.371557 88.097598,44.371557 L86.686578,44.371557 L86.686578,46.375947 L88.097598,46.375947 Z M86.686578,49.695147 C86.686578,50.042547 86.675868,50.165397 86.584968,50.347197 C86.472738,50.555637 86.232258,50.699907 85.938318,50.699907 C85.644288,50.699907 85.403808,50.555637 85.291488,50.347197 C85.200678,50.165397 85.189968,50.042547 85.189968,49.695147 L85.189968,43.954767 C85.189968,43.735617 85.189968,43.463007 85.398498,43.254567 C85.606848,43.046127 85.879458,43.046127 86.098608,43.046127 L88.177788,43.046127 C89.733168,43.046127 90.652428,44.099037 90.652428,45.371097 C90.652428,46.279827 90.150048,47.027997 89.273448,47.380797 L90.411948,49.363677 C90.582948,49.663017 90.641808,49.786047 90.652428,49.962357 C90.663138,50.197527 90.529488,50.443407 90.283608,50.582367 C90.155358,50.657157 90.021798,50.699907 89.888148,50.699907 C89.487198,50.699907 89.332308,50.427387 89.139888,50.090607 L87.728778,47.626587 L86.686578,47.626587 L86.686578,49.695147 Z" id="Fill-25" fill="#1D1E1C" mask="url(#mask-4)"></path>
                        </g>
                    </g>
                </g>
            </g>
        </g>
    </g>
</svg>